<svg xmlns="http://www.w3.org/2000/svg" width="102.073" height="155.799" viewBox="0 0 102.073 155.799">
  <g id="Grupo_6324" data-name="Grupo 6324" transform="translate(-128.963 -71.123)">
    <g id="Grupo_5393" data-name="Grupo 5393" transform="translate(0 -221)">
      <g id="Capa_x0020_1" transform="translate(47.886 252.623)">
        <path id="Trazado_2583" data-name="Trazado 2583" d="M14220.035,7654a51.034,51.034,0,1,1-51.035,51.034A51.035,51.035,0,0,1,14220.035,7654Z" transform="translate(-14087.922 -7614.5)" fill="#202020" fill-rule="evenodd"/>
        <path id="Trazado_2584" data-name="Trazado 2584" d="M17429.814,10871a42.817,42.817,0,1,1-42.814,42.816A42.818,42.818,0,0,1,17429.814,10871Z" transform="translate(-17297.701 -10823.282)" fill="#202020" fill-rule="evenodd"/>
        <g id="Grupo_5390" data-name="Grupo 5390">
          <path id="Trazado_2585" data-name="Trazado 2585" d="M23086.809,16493.717c4.555,3.051,6.129,2.33,6.229,6.852C23089.25,16500.484,23087.254,16497.191,23086.809,16493.717Zm-28.029-9.344c2.752,3.295-3.359,6.326-9.469,12.955l-2.279,2.127c-4.437,3.268-5.395.916-1.516-2.793,1.662-1.586,2.777-2.738,4.387-4.346C23051.895,16490.322,23056.41,16485,23058.779,16484.373Zm9.342-2.49-6.838-.777,20.7-20.869c2.041-2.041,5.408-5.268,6.7-7.631,7.025,0-5.961,14.379-7.629,16.041C23077.789,16471.893,23070.273,16478.668,23068.121,16481.883Zm-1.244-11.215-4.859-4.488c3.576-7.711-5.6-14.963-11.58-18.773l-1.551,1.553c3.43,3.131,10.352,6.711,11,13.072,0,3.551-2.811,5.5-5.846,5.5-4.674-.73-9.01-7.65-12.7-11.184l-1.338,1.855c.939,2.076,7.9,9.229,9.563,10.477,6.289,4.711,8.082-3.094,13.578,5.109-5.291,7.895-23.051,19.107-23.051,26.783,0,1.277,3.551,7.619,10.158-.432l9.08-8.984c5.371-5.162,5.26-3.23,4.434-6.779,2.871.24,1.7.5,3.738,1.869l4.238-3.863c9.334,6.371,13.6,17.215,15.326,19.18,5.02,5.736,13.037.516,7.984-6.113-1.223-1.605-5.121-3.508-7.193-4.645-2.43-1.334-12.881-10.492-13.016-11.682,1.523-1.83,25.855-17.924,16.328-32.119C23088.068,16448.121,23067.43,16469.844,23066.877,16470.668Z" transform="translate(-22936.262 -16385.039)" fill="#fff" fill-rule="evenodd"/>
          <path id="Trazado_2586" data-name="Trazado 2586" d="M25493,17818.664l1.582-1.664,9.25,8.789-1.582,1.666Z" transform="translate(-25382.996 -17751.539)" fill="#fff" fill-rule="evenodd"/>
          <path id="Trazado_2587" data-name="Trazado 2587" d="M24223,19046.664l1.584-1.664,9.25,8.787-1.584,1.668Z" transform="translate(-24116.24 -18976.402)" fill="#fff" fill-rule="evenodd"/>
        </g>
      </g>
    </g>
    <g id="Grupo_5391" data-name="Grupo 5391" transform="translate(-7.181 -224.488)">
      <path id="Trazado_2598" data-name="Trazado 2598" d="M16996.645,55898.039V55895H16980v16.387h5.1v-5.973h10.191v-3.047H16985.1v-4.328Zm3.066,10.289h2.047V55898.1h-2.057v-3.1h9.2v3.1h-2.051v10.227h2.059v3.059h-9.2Zm29.082-13.328v9.945l-10.945-9.945h-4.217v16.387h5.033v-9.945l10.979,9.945h4.182V55895Zm10.252,16.387h10c7.2,0,12.141-3.23,12.141-8.191s-4.941-8.2-12.141-8.2h-10Zm5.1-3.117v-10.152h4.654c4.373,0,7.234,1.938,7.234,5.078s-2.861,5.074-7.234,5.074Zm25.943.07v-3.793h10.227v-2.945h-10.227v-3.562h11.58V55895h-16.639v16.387h17.047v-3.047Z" transform="translate(-16843.857 -55479.652)" fill="#202020"/>
      <path id="Trazado_2599" data-name="Trazado 2599" d="M20961.543,65221.523l-1.912-2.742a2.778,2.778,0,0,0,1.754-2.68c0-1.922-1.422-3.094-3.7-3.094H20954v8.516h1.967v-2.367h1.814l1.639,2.367Zm-2.156-5.422c0,.906-.6,1.453-1.814,1.453h-1.6v-2.945h1.6C20958.783,65214.609,20959.387,65215.156,20959.387,65216.1Zm9.83,2.156a3.235,3.235,0,0,0-3.4-3.383,3.342,3.342,0,0,0-3.5,3.375c0,1.938,1.473,3.359,3.74,3.359a3.471,3.471,0,0,0,2.7-1.055l-1.014-1.094a2.227,2.227,0,0,1-1.639.641,1.748,1.748,0,0,1-1.873-1.32h4.951C20969.193,65218.625,20969.217,65218.422,20969.217,65218.258Zm-3.395-1.953a1.548,1.548,0,0,1,1.6,1.367h-3.219A1.549,1.549,0,0,1,20965.822,65216.3Zm6.865,5.3c1.961,0,3.09-.852,3.09-2.062,0-2.594-3.953-1.508-3.953-2.633,0-.344.361-.609,1.213-.609a3.876,3.876,0,0,1,1.889.477l.629-1.344a5.438,5.438,0,0,0-2.518-.562c-1.908,0-3.029.875-3.029,2.125,0,2.6,3.955,1.516,3.955,2.594,0,.352-.324.586-1.2.586a4.59,4.59,0,0,1-2.279-.633l-.631,1.352A5.559,5.559,0,0,0,20972.688,65221.609Zm10.668-3.352a3.239,3.239,0,0,0-3.41-3.383,3.341,3.341,0,0,0-3.488,3.375c0,1.938,1.477,3.359,3.74,3.359a3.465,3.465,0,0,0,2.7-1.055l-1.01-1.094a2.241,2.241,0,0,1-1.645.641,1.744,1.744,0,0,1-1.869-1.32h4.951C20983.33,65218.625,20983.355,65218.422,20983.355,65218.258Zm-3.391-1.953a1.561,1.561,0,0,1,1.6,1.367h-3.223A1.552,1.552,0,0,1,20979.965,65216.3Zm6.467-.477v-.859h-1.811v6.555h1.895v-3.094a1.608,1.608,0,0,1,1.746-1.828c.146,0,.266.016.422.016v-1.742A2.642,2.642,0,0,0,20986.432,65215.828Zm8.105-.859-1.869,4.453-1.814-4.453h-1.963l2.748,6.555h1.961l2.762-6.555Zm5.246-.094a5,5,0,0,0-2.824.8l.686,1.328a3.1,3.1,0,0,1,1.881-.625c1.025,0,1.508.484,1.508,1.3h-1.508c-1.994,0-2.809.813-2.809,1.953s.906,1.984,2.443,1.984a2.17,2.17,0,0,0,1.994-.906v.82h1.777v-3.742C21002.932,65215.8,21001.771,65214.875,20999.783,65214.875Zm-.146,5.461c-.674,0-1.074-.312-1.074-.789,0-.445.283-.766,1.166-.766h1.3v.664A1.39,1.39,0,0,1,20999.637,65220.336Zm14.865-2.078a3.236,3.236,0,0,0-3.406-3.383,3.338,3.338,0,0,0-3.49,3.375c0,1.938,1.471,3.359,3.734,3.359a3.476,3.476,0,0,0,2.7-1.055l-1.01-1.094a2.253,2.253,0,0,1-1.645.641,1.762,1.762,0,0,1-1.879-1.32h4.961C21014.479,65218.625,21014.5,65218.422,21014.5,65218.258Zm-3.393-1.953a1.555,1.555,0,0,1,1.6,1.367h-3.225A1.556,1.556,0,0,1,21011.109,65216.3Zm10.973,5.219-2.531-3.352,2.436-3.2h-2.023l-1.42,1.914-1.391-1.914h-2.127l2.434,3.258-2.518,3.3h2.066l1.484-2.031,1.436,2.031Zm4.793-6.648a2.525,2.525,0,0,0-2.055.859v-.766h-1.814v8.906h1.9v-3.055a2.533,2.533,0,0,0,1.971.789,3.369,3.369,0,0,0,0-6.734Zm-.324,5.188a1.824,1.824,0,1,1,1.662-1.812A1.659,1.659,0,0,1,21026.551,65220.063Zm6.66-4.234v-.859h-1.811v6.555h1.9v-3.094a1.608,1.608,0,0,1,1.746-1.828c.139,0,.262.016.422.016v-1.742A2.649,2.649,0,0,0,21033.211,65215.828Zm9.848,2.43a3.238,3.238,0,0,0-3.41-3.383,3.342,3.342,0,0,0-3.492,3.375c0,1.938,1.473,3.359,3.734,3.359a3.461,3.461,0,0,0,2.7-1.055l-1.01-1.094a2.238,2.238,0,0,1-1.641.641,1.754,1.754,0,0,1-1.873-1.32h4.951C21043.031,65218.625,21043.059,65218.422,21043.059,65218.258Zm-3.395-1.953a1.561,1.561,0,0,1,1.6,1.367h-3.221A1.549,1.549,0,0,1,21039.664,65216.3Zm6.854,5.3c1.963,0,3.1-.852,3.1-2.062,0-2.594-3.955-1.508-3.955-2.633,0-.344.363-.609,1.219-.609a3.884,3.884,0,0,1,1.881.477l.633-1.344a5.444,5.444,0,0,0-2.514-.562c-1.918,0-3.035.875-3.035,2.125,0,2.6,3.957,1.516,3.957,2.594,0,.352-.332.586-1.2.586a4.592,4.592,0,0,1-2.275-.633l-.633,1.352A5.555,5.555,0,0,0,21046.518,65221.609Zm6.467,0c1.959,0,3.086-.852,3.086-2.062,0-2.594-3.949-1.508-3.949-2.633,0-.344.363-.609,1.213-.609a3.879,3.879,0,0,1,1.887.477l.637-1.344a5.48,5.48,0,0,0-2.523-.562c-1.91,0-3.023.875-3.023,2.125,0,2.6,3.951,1.516,3.951,2.594,0,.352-.328.586-1.2.586a4.576,4.576,0,0,1-2.277-.633l-.635,1.352A5.568,5.568,0,0,0,21052.984,65221.609Z" transform="translate(-20817.857 -64772.465)" fill="#202020"/>
    </g>
  </g>
</svg>
