<svg xmlns="http://www.w3.org/2000/svg" width="78.316" height="16.295" viewBox="0 0 78.316 16.295">
  <g id="Grupo_6318" data-name="Grupo 6318" transform="translate(-11537.928 -947.923)">
    <g id="Grupo_6316" data-name="Grupo 6316" transform="translate(11537.928 947.923)">
      <g id="Capa_x0020_1" transform="translate(0 0)">
        <path id="Trazado_2583" data-name="Trazado 2583" d="M14177.129,7654a8.147,8.147,0,1,1-8.131,8.147A8.14,8.14,0,0,1,14177.129,7654Z" transform="translate(-14168.998 -7653.999)" fill="#fefefe" fill-rule="evenodd"/>
        <path id="Trazado_2584" data-name="Trazado 2584" d="M17393.512,10871a6.528,6.528,0,1,1-6.512,6.525A6.517,6.517,0,0,1,17393.512,10871Z" transform="translate(-17385.381 -10869.382)" fill="#fefefe" fill-rule="evenodd"/>
        <g id="Grupo_5390" data-name="Grupo 5390" transform="translate(2.546 2.518)">
          <path id="Trazado_2585" data-name="Trazado 2585" d="M23049.219,16456.2c.9.6,1.207.463,1.227,1.354A1.36,1.36,0,0,1,23049.219,16456.2Zm-5.523-1.838c.543.648-.66,1.246-1.863,2.551l-.449.42c-.875.643-1.066.18-.3-.553.324-.309.547-.537.863-.852C23042.344,16455.531,23043.23,16454.484,23043.7,16454.361Zm1.844-.492-1.348-.154,4.078-4.109a8.664,8.664,0,0,0,1.316-1.5c1.383,0-1.176,2.834-1.5,3.16A28.787,28.787,0,0,0,23045.539,16453.869Zm-.246-2.207-.957-.885c.7-1.52-1.105-2.951-2.281-3.7l-.3.3c.676.615,2.039,1.322,2.164,2.576a1.075,1.075,0,0,1-1.152,1.08c-.918-.143-1.77-1.506-2.5-2.2l-.262.369a12.147,12.147,0,0,0,1.883,2.063c1.234.928,1.59-.609,2.676,1.006-1.047,1.553-4.539,3.762-4.539,5.277,0,.25.7,1.5,2-.086l1.793-1.773c1.055-1.014,1.031-.633.871-1.332.566.047.336.1.734.367l.836-.762c1.84,1.258,2.68,3.391,3.02,3.779.992,1.131,2.566.1,1.574-1.2a5.685,5.685,0,0,0-1.418-.916,13.911,13.911,0,0,1-2.562-2.3c.3-.359,5.09-3.529,3.215-6.326C23049.465,16447.219,23045.4,16451.5,23045.293,16451.662Z" transform="translate(-23040 -16447)" fill="#201e1e" fill-rule="evenodd"/>
          <path id="Trazado_2586" data-name="Trazado 2586" d="M25493,17817.33l.314-.328,1.824,1.729-.314.33Z" transform="translate(-25491.762 -17816.311)" fill="#201e1e" fill-rule="evenodd"/>
          <path id="Trazado_2587" data-name="Trazado 2587" d="M24223,19045.33l.311-.33,1.824,1.73-.312.328Z" transform="translate(-24222.406 -19043.693)" fill="#201e1e" fill-rule="evenodd"/>
        </g>
      </g>
    </g>
    <g id="Grupo_6317" data-name="Grupo 6317" transform="translate(11564.196 950.923)">
      <path id="Trazado_2598" data-name="Trazado 2598" d="M16988.488,55896.871V55895H16980v10.094h2.6v-3.68h5.2v-1.875h-5.2v-2.664Zm1.563,6.336h1.043v-6.3h-1.047V55895h4.691v1.914h-1.047v6.3h1.051v1.883h-4.691Zm14.83-8.211v6.133l-5.58-6.133h-2.152v10.094h2.566v-6.125l5.6,6.125h2.133V55895Zm5.229,10.094h5.1c3.672,0,6.191-1.992,6.191-5.047s-2.52-5.047-6.191-5.047h-5.1Zm2.6-1.922v-6.25h2.375c2.229,0,3.688,1.2,3.688,3.125s-1.459,3.125-3.687,3.125Zm13.23.039v-2.328h5.213v-1.812h-5.213v-2.2h5.9V55895h-8.484v10.094h8.693v-1.883Z" transform="translate(-16980.002 -55894.996)" fill="#fefefe"/>
    </g>
  </g>
</svg>
