<svg xmlns="http://www.w3.org/2000/svg" width="39.022" height="39.022" viewBox="0 0 39.022 39.022">
  <g id="Icon_ionic-ios-close-circle-outline" data-name="Icon ionic-ios-close-circle-outline" transform="translate(0 0)">
    <path id="Path_4192" data-name="Path 4192" d="M26.948,24.83,22,19.886l4.943-4.943a1.5,1.5,0,1,0-2.12-2.12l-4.943,4.943-4.943-4.943a1.5,1.5,0,1,0-2.12,2.12l4.943,4.943L12.821,24.83a1.449,1.449,0,0,0,0,2.12,1.489,1.489,0,0,0,2.12,0l4.943-4.943,4.943,4.943a1.506,1.506,0,0,0,2.12,0A1.489,1.489,0,0,0,26.948,24.83Z" transform="translate(-0.373 -0.375)" fill="#848484"/>
    <path id="Path_4193" data-name="Path 4193" d="M22.886,6a16.878,16.878,0,1,1-11.941,4.943A16.773,16.773,0,0,1,22.886,6m0-2.626A19.511,19.511,0,1,0,42.4,22.886,19.508,19.508,0,0,0,22.886,3.375Z" transform="translate(-3.375 -3.375)" fill="#848484"/>
  </g>
</svg>
