<svg xmlns="http://www.w3.org/2000/svg" width="42.531" height="39.022" viewBox="0 0 42.531 39.022">
  <path id="Icon_material-favorite-border" data-name="Icon material-favorite-border" d="M33.835,4.5a12.735,12.735,0,0,0-9.569,4.444A12.735,12.735,0,0,0,14.7,4.5,11.582,11.582,0,0,0,3,16.2c0,8.038,7.23,14.588,18.182,24.54l3.083,2.786,3.083-2.807C38.3,30.784,45.531,24.234,45.531,16.2A11.582,11.582,0,0,0,33.835,4.5ZM24.478,37.568l-.213.213-.213-.213C13.93,28.4,7.253,22.342,7.253,16.2A7.268,7.268,0,0,1,14.7,8.753a8.314,8.314,0,0,1,7.592,5.019h3.977a8.261,8.261,0,0,1,7.571-5.019A7.268,7.268,0,0,1,41.278,16.2C41.278,22.342,34.6,28.4,24.478,37.568Z" transform="translate(-3 -4.5)" fill="#848484"/>
</svg>
