<svg xmlns="http://www.w3.org/2000/svg" width="38.401" height="39.022" viewBox="0 0 38.401 39.022">
  <path id="Icon_awesome-flag-checkered" data-name="Icon awesome-flag-checkered" d="M18.487,14.472v5.19c1.989.45,3.757,1.189,5.609,1.7v-5.2c-1.981-.442-3.765-1.181-5.609-1.692ZM35.5,5.1A22.253,22.253,0,0,1,26.587,7.53C22.51,7.53,19.134,4.878,14,4.878a14.817,14.817,0,0,0-5.182.914A4.268,4.268,0,1,0,2.391,7.766V37.19A1.825,1.825,0,0,0,4.22,39.019H5.44A1.825,1.825,0,0,0,7.269,37.19V30a21.248,21.248,0,0,1,8.718-1.684c4.085,0,7.453,2.652,12.59,2.652a15.924,15.924,0,0,0,9.335-3.117,2.431,2.431,0,0,0,1.052-2.012V7.309A2.435,2.435,0,0,0,35.5,5.1ZM12.878,24.806a24.008,24.008,0,0,0-5.609,1.265V20.7a21.8,21.8,0,0,1,5.609-1.326Zm22.436-10.25A24.309,24.309,0,0,1,29.7,16.377V21.8a14.164,14.164,0,0,0,5.609-1.981v5.373A12.314,12.314,0,0,1,29.7,27.252V21.8a12.89,12.89,0,0,1-5.609-.427v5.136a44.464,44.464,0,0,0-5.609-1.623v-5.22a16.94,16.94,0,0,0-5.609-.29V14.038A26.893,26.893,0,0,0,7.269,15.63V10.258c2.53-.93,3.818-1.509,5.609-1.677v5.456a12.962,12.962,0,0,1,5.609.434V9.336A43.384,43.384,0,0,0,24.1,10.959v5.213a14.517,14.517,0,0,0,5.609.206V10.9a26.964,26.964,0,0,0,5.609-1.715Z" transform="translate(-0.563 0.003)" fill="#848484"/>
</svg>
