<svg xmlns="http://www.w3.org/2000/svg" width="24" height="27.633" viewBox="0 0 24 27.633">
  <path id="person_pin_FILL1_wght400_GRAD0_opsz48" d="M18,31.583a.979.979,0,0,1-.367-.067,1.016,1.016,0,0,1-.333-.233L13.967,27.95H8a2.051,2.051,0,0,1-2-2v-20a1.9,1.9,0,0,1,.6-1.417A1.946,1.946,0,0,1,8,3.95H28a1.946,1.946,0,0,1,1.4.583A1.9,1.9,0,0,1,30,5.95v20a2.051,2.051,0,0,1-2,2H22.033L18.7,31.283a1.016,1.016,0,0,1-.333.233.979.979,0,0,1-.367.067Zm.067-13.667a4.553,4.553,0,0,0,4.6-4.6,4.553,4.553,0,0,0-4.6-4.6,4.553,4.553,0,0,0-4.6,4.6,4.553,4.553,0,0,0,4.6,4.6ZM18,29.017l3.067-3.067H28V24.683A17.151,17.151,0,0,0,23.467,21.7,13.068,13.068,0,0,0,18,20.55a13.068,13.068,0,0,0-5.467,1.15A17.151,17.151,0,0,0,8,24.683V25.95h6.933Z" transform="translate(-6 -3.95)" fill="#2d3738"/>
</svg>
