<svg xmlns="http://www.w3.org/2000/svg" width="40" height="38" viewBox="0 0 40 38">
  <path id="pets_FILL1_wght400_GRAD0_opsz48" d="M8.5,23.75A4.44,4.44,0,0,1,4,19.25a4.44,4.44,0,0,1,4.5-4.5,4.44,4.44,0,0,1,4.5,4.5,4.44,4.44,0,0,1-4.5,4.5Zm9.25-8.5a4.44,4.44,0,0,1-4.5-4.5,4.44,4.44,0,0,1,4.5-4.5,4.44,4.44,0,0,1,4.5,4.5,4.44,4.44,0,0,1-4.5,4.5Zm12.5,0a4.44,4.44,0,0,1-4.5-4.5,4.526,4.526,0,0,1,7.7-3.2,4.349,4.349,0,0,1,1.3,3.2,4.44,4.44,0,0,1-4.5,4.5Zm9.25,8.5a4.44,4.44,0,0,1-4.5-4.5,4.5,4.5,0,1,1,9,0,4.44,4.44,0,0,1-4.5,4.5ZM13.3,44.25a4.341,4.341,0,0,1-3.45-1.575A5.54,5.54,0,0,1,8.5,38.95a5.868,5.868,0,0,1,1.275-3.725A40.184,40.184,0,0,1,12.5,32.1a24.638,24.638,0,0,0,2.05-2.325q.95-1.225,1.8-2.525a29.769,29.769,0,0,1,3.25-4.1,5.829,5.829,0,0,1,4.4-1.9,5.908,5.908,0,0,1,4.425,1.9A27.4,27.4,0,0,1,31.7,27.3q.85,1.3,1.775,2.5A23.806,23.806,0,0,0,35.5,32.1a40.184,40.184,0,0,1,2.725,3.125A5.868,5.868,0,0,1,39.5,38.95a5.54,5.54,0,0,1-1.35,3.725A4.341,4.341,0,0,1,34.7,44.25a31.9,31.9,0,0,1-5.35-.45,32.028,32.028,0,0,0-10.7,0A31.9,31.9,0,0,1,13.3,44.25Z" transform="translate(-4 -6.25)" fill="#848484"/>
</svg>
