<svg xmlns="http://www.w3.org/2000/svg" width="27" height="40" viewBox="0 0 27 40">
  <path id="pin_drop_FILL1_wght400_GRAD0_opsz48" d="M24,36.35a2.675,2.675,0,0,1-.65-.075A1.426,1.426,0,0,1,22.8,36a42.632,42.632,0,0,1-9.275-9.325A15.792,15.792,0,0,1,10.5,17.8a13.762,13.762,0,0,1,1.225-5.975A13.546,13.546,0,0,1,14.9,7.5a13.27,13.27,0,0,1,4.35-2.625,13.33,13.33,0,0,1,9.5,0A13.27,13.27,0,0,1,33.1,7.5a13.546,13.546,0,0,1,3.175,4.325A13.762,13.762,0,0,1,37.5,17.8a15.792,15.792,0,0,1-3.025,8.875A42.632,42.632,0,0,1,25.2,36a1.426,1.426,0,0,1-.55.275,2.675,2.675,0,0,1-.65.075ZM24,21a3.5,3.5,0,0,0,3.5-3.5,3.5,3.5,0,0,0-5.975-2.475,3.5,3.5,0,0,0,0,4.95A3.372,3.372,0,0,0,24,21ZM12,44a1.5,1.5,0,1,1,0-3H36a1.5,1.5,0,1,1,0,3Z" transform="translate(-10.5 -4)" fill="#848484"/>
</svg>
